<svg width="33" height="32" viewBox="0 0 33 32" fill="none" xmlns="http://www.w3.org/2000/svg">
    <path d="M16.5 0C14.3332 -3.13096e-08 12.1876 0.413852 10.1857 1.21793C8.18385 2.022 6.36491 3.20055 4.83274 4.68629C3.30057 6.17203 2.08519 7.93586 1.25599 9.87707C0.426785 11.8183 0 13.8988 0 16C0 18.1011 0.426785 20.1817 1.25599 22.1229C2.08519 24.0641 3.30057 25.828 4.83274 27.3137C6.36491 28.7994 8.18385 29.978 10.1857 30.7821C12.1876 31.5861 14.3332 32 16.5 32C20.8761 32 25.0729 30.3143 28.1673 27.3137C31.2616 24.3131 33 20.2435 33 16C33 11.7565 31.2616 7.68687 28.1673 4.68629C25.0729 1.68571 20.8761 0 16.5 0ZM25.9073 21.8302L22.5107 25.1238L16.5 19.2937L10.4876 25.1222L7.09107 21.8286L13.1059 16L7.09271 10.1698L10.4893 6.87778L16.5 12.7063L22.5124 6.87619L25.9089 10.1698L19.8941 16L25.9073 21.8302Z" fill="white"/>
    </svg>
    