<svg width="61" height="62" viewBox="0 0 61 62" fill="none" xmlns="http://www.w3.org/2000/svg">
    <g filter="url(#filter0_i_487_3581)">
        <rect x="0.910448" y="1.41045" width="59.1791" height="59.1791" rx="13.6567"
            stroke="url(#paint0_linear_487_3581)" stroke-width="1.8209" />
        <path
            d="M19.2052 22.5H41.7948C43.9259 22.5 45 23.3358 45 25.0358V36.9642C45 38.65 43.9259 39.5 41.7948 39.5H19.2052C17.0741 39.5 16 38.65 16 36.9642V25.0358C16 23.3358 17.0741 22.5 19.2052 22.5ZM30.4915 34.6833L41.9824 26.8492C42.3915 26.5658 42.7155 25.9142 42.204 25.3333C41.7096 24.7525 40.806 24.7383 40.2093 25.0925L30.4915 30.5608L20.7907 25.0925C20.194 24.7383 19.2904 24.7525 18.796 25.3333C18.2845 25.9142 18.6085 26.5658 19.0176 26.8492L30.4915 34.6833Z"
            fill="white" fill-opacity="0.9" />
    </g>
    <defs>
        <filter id="filter0_i_487_3581" x="0" y="0.5" width="61" height="64.6418"
            filterUnits="userSpaceOnUse" color-interpolation-filters="sRGB">
            <feFlood flood-opacity="0" result="BackgroundImageFix" />
            <feBlend mode="normal" in="SourceGraphic" in2="BackgroundImageFix" result="shape" />
            <feColorMatrix in="SourceAlpha" type="matrix"
                values="0 0 0 0 0 0 0 0 0 0 0 0 0 0 0 0 0 0 127 0" result="hardAlpha" />
            <feOffset dy="3.64179" />
            <feGaussianBlur stdDeviation="1.8209" />
            <feComposite in2="hardAlpha" operator="arithmetic" k2="-1" k3="1" />
            <feColorMatrix type="matrix" values="0 0 0 0 1 0 0 0 0 1 0 0 0 0 1 0 0 0 0.25 0" />
            <feBlend mode="normal" in2="shape" result="effect1_innerShadow_487_3581" />
        </filter>
        <linearGradient id="paint0_linear_487_3581" x1="-1.21307" y1="31" x2="61" y2="31"
            gradientUnits="userSpaceOnUse">
            <stop stop-color="#7B1ECC" />
            <stop offset="0.531619" stop-color="white" stop-opacity="0.5" />
            <stop offset="0.987536" stop-color="#7B1ECC" />
        </linearGradient>
    </defs>
</svg>
    