<svg width="16" height="24" viewBox="0 0 16 24" fill="none" xmlns="http://www.w3.org/2000/svg">
    <path d="M9.84615 24H4.92308C4.59666 24 4.28361 23.8736 4.05279 23.6486C3.82198 23.4236 3.69231 23.1185 3.69231 22.8003V15.3621H1.23077C0.904349 15.3621 0.591298 15.2357 0.360484 15.0107C0.12967 14.7857 0 14.4806 0 14.1624V9.84342C0 9.52524 0.12967 9.22009 0.360484 8.9951C0.591298 8.77011 0.904349 8.64371 1.23077 8.64371H3.69231V6.60421C3.77858 4.77627 4.60384 3.056 5.98766 1.81951C7.37148 0.583025 9.20125 -0.0690709 11.0769 0.00580339H14.7692C15.0957 0.00580339 15.4087 0.132201 15.6395 0.35719C15.8703 0.582179 16 0.88733 16 1.20551V5.52447C16 5.84265 15.8703 6.1478 15.6395 6.37279C15.4087 6.59778 15.0957 6.72418 14.7692 6.72418H11.0769V8.64371H14.7692C14.9593 8.64231 15.1471 8.68382 15.3179 8.765C15.4887 8.84618 15.6379 8.96481 15.7538 9.1116C15.8685 9.2606 15.946 9.43357 15.9801 9.61682C16.0143 9.80006 16.0043 9.98855 15.9508 10.1673L14.72 14.4863C14.6456 14.7458 14.4837 14.9733 14.2604 15.1322C14.0371 15.2911 13.7655 15.372 13.4892 15.3621H11.0769V22.8003C11.0769 23.1185 10.9473 23.4236 10.7164 23.6486C10.4856 23.8736 10.1726 24 9.84615 24ZM6.15385 21.6006H8.61539V14.1624C8.61539 13.8442 8.74506 13.539 8.97587 13.3141C9.20668 13.0891 9.51973 12.9627 9.84615 12.9627H12.6031L13.1446 11.0431H9.84615C9.51973 11.0431 9.20668 10.9167 8.97587 10.6917C8.74506 10.4668 8.61539 10.1616 8.61539 9.84342V6.60421C8.64699 5.98886 8.92021 5.40895 9.37846 4.9846C9.83671 4.56025 10.4449 4.32399 11.0769 4.32476H13.5385V2.40522H11.0769C9.85454 2.33263 8.65208 2.73278 7.73044 3.51887C6.80879 4.30496 6.24229 5.41358 6.15385 6.60421V9.84342C6.15385 10.1616 6.02418 10.4668 5.79336 10.6917C5.56255 10.9167 5.2495 11.0431 4.92308 11.0431H2.46154V12.9627H4.92308C5.2495 12.9627 5.56255 13.0891 5.79336 13.3141C6.02418 13.539 6.15385 13.8442 6.15385 14.1624V21.6006Z" fill="white"/>
    </svg>
    