<svg width="24" height="24" viewBox="0 0 24 24" fill="none" xmlns="http://www.w3.org/2000/svg">
    <path fill-rule="evenodd" clip-rule="evenodd"
        d="M7.2 0H16.8C18.7096 0 20.5409 0.758569 21.8912 2.10883C23.2414 3.45909 24 5.29044 24 7.2V16.8C24 18.7096 23.2414 20.5409 21.8912 21.8912C20.5409 23.2414 18.7096 24 16.8 24H7.2C5.29044 24 3.45909 23.2414 2.10883 21.8912C0.758569 20.5409 0 18.7096 0 16.8V7.2C0 5.29044 0.758569 3.45909 2.10883 2.10883C3.45909 0.758569 5.29044 0 7.2 0ZM7.2 2.4C5.92696 2.4 4.70606 2.90571 3.80589 3.80589C2.90571 4.70606 2.4 5.92696 2.4 7.2V16.8C2.4 18.073 2.90571 19.2939 3.80589 20.1941C4.70606 21.0943 5.92696 21.6 7.2 21.6H16.8C18.073 21.6 19.2939 21.0943 20.1941 20.1941C21.0943 19.2939 21.6 18.073 21.6 16.8V7.2C21.6 5.92696 21.0943 4.70606 20.1941 3.80589C19.2939 2.90571 18.073 2.4 16.8 2.4H7.2ZM12 18C10.4087 18 8.88258 17.3679 7.75736 16.2426C6.63214 15.1174 6 13.5913 6 12C6 10.4087 6.63214 8.88258 7.75736 7.75736C8.88258 6.63214 10.4087 6 12 6C13.5913 6 15.1174 6.63214 16.2426 7.75736C17.3679 8.88258 18 10.4087 18 12C18 13.5913 17.3679 15.1174 16.2426 16.2426C15.1174 17.3679 13.5913 18 12 18ZM12 15.6C12.9548 15.6 13.8705 15.2207 14.5456 14.5456C15.2207 13.8705 15.6 12.9548 15.6 12C15.6 11.0452 15.2207 10.1295 14.5456 9.45442C13.8705 8.77928 12.9548 8.4 12 8.4C11.0452 8.4 10.1295 8.77928 9.45442 9.45442C8.77928 10.1295 8.4 11.0452 8.4 12C8.4 12.9548 8.77928 13.8705 9.45442 14.5456C10.1295 15.2207 11.0452 15.6 12 15.6ZM18 7.2C17.6817 7.2 17.3765 7.07357 17.1515 6.84853C16.9264 6.62348 16.8 6.31826 16.8 6C16.8 5.68174 16.9264 5.37652 17.1515 5.15147C17.3765 4.92643 17.6817 4.8 18 4.8C18.3183 4.8 18.6235 4.92643 18.8485 5.15147C19.0736 5.37652 19.2 5.68174 19.2 6C19.2 6.31826 19.0736 6.62348 18.8485 6.84853C18.6235 7.07357 18.3183 7.2 18 7.2Z"
        fill="white" />
</svg>
    