<svg width="27" height="26" viewBox="0 0 27 26" fill="none" xmlns="http://www.w3.org/2000/svg">
    <path
        d="M3.4 5.91955C4.72548 5.91955 5.8 4.88276 5.8 3.60382C5.8 2.32488 4.72548 1.28809 3.4 1.28809C2.07452 1.28809 1 2.32488 1 3.60382C1 4.88276 2.07452 5.91955 3.4 5.91955Z"
        stroke="white" stroke-width="2" stroke-linecap="round" stroke-linejoin="round" />
    <path
        d="M18.8 9.66016C20.7096 9.66016 22.5409 10.3921 23.8912 11.6949C25.2414 12.9978 26 14.7648 26 16.6074V24.7124H21.2V16.6074C21.2 15.9932 20.9471 15.4042 20.4971 14.9699C20.047 14.5356 19.4365 14.2916 18.8 14.2916C18.1635 14.2916 17.553 14.5356 17.1029 14.9699C16.6529 15.4042 16.4 15.9932 16.4 16.6074V24.7124H11.6V16.6074C11.6 14.7648 12.3586 12.9978 13.7088 11.6949C15.0591 10.3921 16.8904 9.66016 18.8 9.66016ZM2 10.818H6.8V24.7124H2V10.818Z"
        stroke="white" stroke-width="2" stroke-linecap="round" stroke-linejoin="round" />
</svg>
    