<svg width="61" height="62" viewBox="0 0 61 62" fill="none" xmlns="http://www.w3.org/2000/svg">
    <g filter="url(#filter0_i_487_3583)">
    <rect x="0.910448" y="1.41045" width="59.1791" height="59.1791" rx="13.6567" stroke="url(#paint0_linear_487_3583)" stroke-width="1.8209"/>
    <path d="M30.5 16.5C24.704 16.5 20 20.676 20 25.8214C20 34.1071 30.5 45.5 30.5 45.5C30.5 45.5 41 34.1071 41 25.8214C41 20.676 36.296 16.5 30.5 16.5ZM30.5 31C29.6693 31 28.8573 30.757 28.1666 30.3018C27.4759 29.8466 26.9376 29.1996 26.6197 28.4425C26.3018 27.6855 26.2186 26.8525 26.3807 26.0489C26.5428 25.2453 26.9428 24.5071 27.5302 23.9277C28.1175 23.3483 28.8659 22.9537 29.6806 22.7939C30.4953 22.634 31.3398 22.7161 32.1073 23.0296C32.8747 23.3432 33.5307 23.8742 33.9922 24.5555C34.4537 25.2368 34.7 26.0378 34.7 26.8571C34.6987 27.9555 34.2558 29.0085 33.4684 29.7852C32.681 30.5618 31.6135 30.9987 30.5 31Z" fill="white" fill-opacity="0.9"/>
    </g>
    <defs>
    <filter id="filter0_i_487_3583" x="0" y="0.5" width="61" height="64.6418" filterUnits="userSpaceOnUse" color-interpolation-filters="sRGB">
    <feFlood flood-opacity="0" result="BackgroundImageFix"/>
    <feBlend mode="normal" in="SourceGraphic" in2="BackgroundImageFix" result="shape"/>
    <feColorMatrix in="SourceAlpha" type="matrix" values="0 0 0 0 0 0 0 0 0 0 0 0 0 0 0 0 0 0 127 0" result="hardAlpha"/>
    <feOffset dy="3.64179"/>
    <feGaussianBlur stdDeviation="1.8209"/>
    <feComposite in2="hardAlpha" operator="arithmetic" k2="-1" k3="1"/>
    <feColorMatrix type="matrix" values="0 0 0 0 1 0 0 0 0 1 0 0 0 0 1 0 0 0 0.25 0"/>
    <feBlend mode="normal" in2="shape" result="effect1_innerShadow_487_3583"/>
    </filter>
    <linearGradient id="paint0_linear_487_3583" x1="-1.21307" y1="31" x2="61" y2="31" gradientUnits="userSpaceOnUse">
    <stop stop-color="#7B1ECC"/>
    <stop offset="0.531619" stop-color="white" stop-opacity="0.5"/>
    <stop offset="0.987536" stop-color="#7B1ECC"/>
    </linearGradient>
    </defs>
    </svg>
    