<svg width="12" height="22" viewBox="0 0 12 22" fill="none" xmlns="http://www.w3.org/2000/svg">
    <path
        d="M3.6478 19.8948C3.6478 20.9658 4.51602 21.834 5.58703 21.834C6.65803 21.834 7.52626 20.9658 7.52626 19.8948V13.9804C7.52626 13.0262 8.29974 12.2527 9.25387 12.2527C10.121 12.2527 10.8538 11.6099 10.9668 10.7502L11.0001 10.4968C11.1373 9.45217 10.3242 8.52523 9.27059 8.52523C8.30722 8.52523 7.52626 7.74427 7.52626 6.7809V6.13648C7.52626 5.06023 7.83071 4.32523 9.39268 4.32523H9.62263C10.5995 4.32523 11.3915 3.53329 11.3915 2.55638C11.3915 1.65726 10.7161 0.904518 9.81785 0.864356C9.4169 0.846429 8.9665 0.833984 8.49256 0.833984C5.60688 0.833984 3.6478 2.57961 3.6478 5.76898V6.89708C3.6478 7.79628 2.91885 8.52523 2.01964 8.52523C1.12043 8.52523 0.391479 9.25419 0.391479 10.1534V10.6246C0.391479 11.5238 1.12043 12.2527 2.01964 12.2527C2.91885 12.2527 3.6478 12.9817 3.6478 13.8809V19.8948Z"
        fill="white" fill-opacity="0.9" />
</svg>
    