<svg width="26" height="26" viewBox="0 0 26 26" fill="none" xmlns="http://www.w3.org/2000/svg">
    <path
        d="M13.4977 10.6655C11.9369 10.6655 10.6632 11.9392 10.6632 13.5C10.6632 15.0608 11.9369 16.3345 13.4977 16.3345C15.0585 16.3345 16.3322 15.0608 16.3322 13.5C16.3322 11.9392 15.0585 10.6655 13.4977 10.6655ZM21.9991 13.5C21.9991 12.3262 22.0097 11.163 21.9438 9.99138C21.8778 8.63046 21.5674 7.42264 20.5722 6.42747C19.575 5.43017 18.3693 5.12184 17.0084 5.05592C15.8346 4.99 14.6715 5.00063 13.4998 5.00063C12.3261 5.00063 11.1629 4.99 9.99129 5.05592C8.63039 5.12184 7.4226 5.4323 6.42745 6.42747C5.43016 7.42477 5.12184 8.63046 5.05592 9.99138C4.99 11.1652 5.00063 12.3283 5.00063 13.5C5.00063 14.6717 4.99 15.837 5.05592 17.0086C5.12184 18.3695 5.43229 19.5774 6.42745 20.5725C7.42473 21.5698 8.63039 21.8782 9.99129 21.9441C11.1651 22.01 12.3282 21.9994 13.4998 21.9994C14.6736 21.9994 15.8368 22.01 17.0084 21.9441C18.3693 21.8782 19.5771 21.5677 20.5722 20.5725C21.5695 19.5752 21.8778 18.3695 21.9438 17.0086C22.0118 15.837 21.9991 14.6738 21.9991 13.5ZM13.4977 17.8613C11.0843 17.8613 9.13648 15.9135 9.13648 13.5C9.13648 11.0865 11.0843 9.13868 13.4977 9.13868C15.9112 9.13868 17.859 11.0865 17.859 13.5C17.859 15.9135 15.9112 17.8613 13.4977 17.8613ZM18.0376 9.97862C17.4741 9.97862 17.019 9.52356 17.019 8.96006C17.019 8.39655 17.4741 7.94149 18.0376 7.94149C18.6011 7.94149 19.0561 8.39655 19.0561 8.96006C19.0563 9.09386 19.0301 9.22639 18.9789 9.35004C18.9278 9.4737 18.8528 9.58605 18.7582 9.68067C18.6636 9.77528 18.5512 9.8503 18.4276 9.90143C18.3039 9.95256 18.1714 9.97879 18.0376 9.97862Z"
        fill="white" fill-opacity="0.9" />
</svg>
    