<svg width="53" height="41" viewBox="0 0 53 41" fill="none" xmlns="http://www.w3.org/2000/svg">
    <g clip-path="url(#clip0_1546_40)">
        <path
            d="M40.2126 22.3382C42.105 22.3318 43.9639 21.8428 45.6105 20.9181C43.2923 26.866 39.4475 32.1109 34.4566 36.1336C34.171 36.3667 33.9346 36.6533 33.7607 36.977C33.5869 37.3007 33.4791 37.6552 33.4435 38.0202C33.4078 38.3852 33.4451 38.7535 33.5531 39.1043C33.6611 39.455 33.8377 39.7812 34.0728 40.0643C34.308 40.3474 34.5971 40.5817 34.9237 40.7541C35.2502 40.9264 35.6078 41.0332 35.976 41.0686C36.3442 41.1039 36.7158 41.067 37.0696 40.9599C37.4235 40.8529 37.7525 40.6778 38.0381 40.4447C48.271 32.2029 52.8247 20.7913 52.8247 13.716C52.8071 11.2144 52.055 8.7719 50.6603 6.68688C49.2657 4.60186 47.2887 2.96449 44.9709 1.97469C43.4709 1.25436 41.8282 0.873251 40.1614 0.858884C38.6944 0.788197 37.2281 1.0136 35.8516 1.52141C34.4751 2.02923 33.2169 2.80889 32.1534 3.81311C31.0899 4.81734 30.2432 6.0252 29.6647 7.36348C29.0862 8.70176 28.7879 10.1426 28.7879 11.5985C28.7879 13.0545 29.0862 14.4953 29.6647 15.8336C30.2432 17.1719 31.0899 18.3797 32.1534 19.3839C33.2169 20.3882 34.4751 21.1678 35.8516 21.6756C37.2281 22.1835 38.6944 22.4089 40.1614 22.3382H40.2126Z"
            fill="white" fill-opacity="0.9" />
        <path
            d="M11.7138 22.3382C13.6065 22.3341 15.466 21.8449 17.1117 20.918C14.7945 26.8598 10.9598 32.1029 5.98338 36.1336C5.6719 36.3562 5.40966 36.6396 5.21281 36.9663C5.01595 37.2931 4.88864 37.6564 4.8387 38.0338C4.78877 38.4111 4.81727 38.7947 4.92246 39.1607C5.02765 39.5268 5.20729 39.8676 5.45033 40.1623C5.69338 40.4569 5.99468 40.6991 6.3357 40.8741C6.67672 41.049 7.05023 41.1528 7.43327 41.1793C7.8163 41.2057 8.20074 41.1542 8.56294 41.0279C8.92513 40.9015 9.25741 40.7031 9.53932 40.4447C19.7723 32.2029 24.3259 20.7912 24.3259 13.716C24.3138 11.2427 23.5837 8.82508 22.2227 6.75203C20.8618 4.67897 18.9276 3.03809 16.6512 2.0254C15.1132 1.28399 13.4241 0.902265 11.7138 0.909595C10.2468 0.838908 8.78053 1.06431 7.40399 1.57212C6.02744 2.07994 4.76928 2.8596 3.70578 3.86382C2.64229 4.86804 1.79561 6.07592 1.2171 7.41419C0.638587 8.75247 0.340287 10.1933 0.340287 11.6492C0.340287 13.1052 0.638587 14.546 1.2171 15.8843C1.79561 17.2226 2.64229 18.4304 3.70578 19.4347C4.76928 20.4389 6.02744 21.2185 7.40399 21.7264C8.78053 22.2342 10.2468 22.4596 11.7138 22.3889V22.3382Z"
            fill="white" fill-opacity="0.9" />
    </g>
    <defs>
        <clipPath id="clip0_1546_40">
            <rect width="52.3415" height="40.1691" fill="white"
                transform="matrix(-1 0 0 -1 52.8588 40.9834)" />
        </clipPath>
    </defs>
</svg>
    