<svg width="12" height="8" viewBox="0 0 12 8" fill="none" xmlns="http://www.w3.org/2000/svg">
<path d="M0.264138 7.23232C0.433317 7.40372 0.662742 7.5 0.901961 7.5C1.14118 7.5 1.37061 7.40372 1.53978 7.23232L6.00545 2.7068L10.4711 7.23232C10.6413 7.39886 10.8691 7.49101 11.1057 7.48893C11.3422 7.48684 11.5685 7.39069 11.7358 7.22118C11.903 7.05168 11.9979 6.82237 12 6.58266C12.002 6.34295 11.9111 6.112 11.7468 5.93958L6.64327 0.767679C6.47409 0.596284 6.24467 0.5 6.00545 0.5C5.76623 0.5 5.5368 0.596284 5.36762 0.767679L0.264138 5.93958C0.0950107 6.11102 0 6.34352 0 6.58595C0 6.82837 0.0950107 7.06087 0.264138 7.23232Z" fill="white" fill-opacity="0.9"/>
</svg>
