<svg width="20" height="20" viewBox="0 0 20 20" fill="none" xmlns="http://www.w3.org/2000/svg">
    <circle cx="10" cy="10" r="10" fill="white" fill-opacity="0.9" />
    <path
        d="M10 0C8.68678 -1.95685e-08 7.38642 0.258658 6.17317 0.761205C4.95991 1.26375 3.85752 2.00035 2.92893 2.92893C2.00035 3.85752 1.26375 4.95991 0.761205 6.17317C0.258658 7.38642 0 8.68678 0 10C0 11.3132 0.258658 12.6136 0.761205 13.8268C1.26375 15.0401 2.00035 16.1425 2.92893 17.0711C3.85752 17.9997 4.95991 18.7362 6.17317 19.2388C7.38642 19.7413 8.68678 20 10 20C12.6522 20 15.1957 18.9464 17.0711 17.0711C18.9464 15.1957 20 12.6522 20 10C20 7.34784 18.9464 4.8043 17.0711 2.92893C15.1957 1.05357 12.6522 0 10 0ZM15.7014 13.6439L13.6429 15.7024L10 12.0585L6.35615 15.7014L4.29762 13.6429L7.94296 10L4.29861 6.35615L6.35714 4.29861L10 7.94147L13.6439 4.29762L15.7024 6.35615L12.057 10L15.7014 13.6439Z"
        fill="#FF000F" />
</svg>
    