<svg width="18" height="16" viewBox="0 0 18 16" fill="none" xmlns="http://www.w3.org/2000/svg">
    <path
        d="M16.9717 8.81213V15.2509H14.3508V10.0021C14.3508 9.02023 14.0417 8.24766 13.523 7.72352C13.0071 7.20213 12.3218 6.96604 11.6476 6.98898C10.2857 7.03531 8.97833 8.13075 8.97833 10.0021V15.2509H6.36667V5.29588H9.00237L8.97849 6.25341L9.91198 6.51477C10.2189 5.98005 10.7995 5.53331 11.5446 5.25427C12.2858 4.9767 13.1495 4.8815 13.9656 5.01381C14.7797 5.14579 15.525 5.49974 16.0654 6.09876C16.6013 6.69281 16.9717 7.56747 16.9717 8.81213ZM3.16667 1.75061C3.1665 2.07443 3.03179 2.38991 2.78399 2.62621C2.53541 2.86325 2.19359 3.00017 1.83266 3C1.47172 2.99983 1.13006 2.86259 0.881741 2.62531C0.63421 2.3888 0.499831 2.0732 0.5 1.74939C0.50017 1.42557 0.634882 1.11009 0.882676 0.873795C1.13126 0.636746 1.47308 0.499828 1.83401 0.5C2.19494 0.500172 2.5366 0.637416 2.78493 0.874687C3.03246 1.1112 3.16684 1.4268 3.16667 1.75061ZM0.555 15.2509V5.29588H3.22167V15.2509H0.555Z"
        fill="white" stroke="white" />
</svg>
    