<svg width="100" height="100" viewBox="0 0 100 100" fill="none" xmlns="http://www.w3.org/2000/svg">
    <path d="M94.7799 54.0338L94.3025 57.7282L93.2974 57.6011L93.7748 53.9067L94.7799 54.0338Z" fill="white" fill-opacity="0.9"/>
    <path d="M89.2127 63.7203C89.3891 63.2275 89.6243 62.8084 89.9186 62.4633C90.215 62.1226 90.5556 61.8763 90.9404 61.7245C91.3284 61.5738 91.7405 61.5327 92.1765 61.6009L92.0277 62.9043C91.6062 62.8265 91.2318 62.8973 90.9044 63.117C90.5792 63.3412 90.3378 63.6735 90.1801 64.1143C90.0481 64.4831 90.0209 64.8188 90.0982 65.1215C90.179 65.4252 90.3909 65.6372 90.734 65.7575C90.9782 65.8429 91.2058 65.8345 91.417 65.732C91.6314 65.6309 91.8224 65.481 91.9899 65.2825C92.1596 65.0884 92.378 64.8049 92.6452 64.4319C92.9439 64.0222 93.2113 63.6952 93.4472 63.451C93.6865 63.2078 93.9665 63.0321 94.2874 62.924C94.6114 62.8172 94.9749 62.8343 95.3773 62.9752C95.803 63.1243 96.1286 63.3559 96.3541 63.6699C96.5818 63.9884 96.7083 64.356 96.7338 64.7727C96.7593 65.1893 96.6914 65.6229 96.5303 66.0734C96.3772 66.5011 96.1721 66.8773 95.9147 67.2023C95.6574 67.5273 95.3489 67.772 94.9894 67.9363C94.6286 68.1038 94.2303 68.159 93.794 68.1018L93.9115 66.8701C94.3014 66.9221 94.6321 66.8487 94.9037 66.65C95.1775 66.4556 95.3826 66.1675 95.5193 65.7855C95.6478 65.4264 95.6734 65.0955 95.596 64.793C95.5173 64.4936 95.3098 64.285 94.9733 64.1671C94.7686 64.0955 94.5758 64.1051 94.3949 64.1961C94.2138 64.2869 94.0469 64.4214 93.8941 64.5993C93.7447 64.7784 93.5506 65.0355 93.3119 65.3706C92.9981 65.8118 92.7152 66.1665 92.4634 66.4346C92.2115 66.7028 91.909 66.8998 91.5556 67.026C91.2044 67.1564 90.8095 67.1449 90.3706 66.9912C89.9054 66.8283 89.5592 66.5766 89.3319 66.2362C89.1047 65.8959 88.9856 65.507 88.975 65.0698C88.9665 64.637 89.0457 64.1872 89.2127 63.7203Z" fill="white" fill-opacity="0.9"/>
    <path d="M86.0523 70.6165C86.4059 69.9987 86.8595 69.5187 87.4135 69.1763C87.9704 68.8356 88.5827 68.6653 89.2505 68.6652C89.9165 68.6682 90.5876 68.8591 91.2637 69.2378C91.9369 69.6149 92.4461 70.0851 92.7913 70.6486C93.1349 71.2151 93.3008 71.8214 93.2891 72.4675C93.2804 73.1152 93.0993 73.748 92.7458 74.3658C92.4888 74.8148 92.1745 75.1919 91.8027 75.497C91.4341 75.8038 91.0269 76.0234 90.5811 76.1558C90.1366 76.2929 89.6753 76.3329 89.197 76.276L89.3855 75.0503C89.8673 75.1013 90.3154 75.014 90.7299 74.7886C91.1429 74.5663 91.4751 74.235 91.7269 73.7951C91.9615 73.3852 92.0806 72.9626 92.0846 72.5269C92.0867 72.0944 91.9654 71.6843 91.7207 71.2965C91.4791 70.9104 91.1207 70.5844 90.6455 70.3182C90.1674 70.0503 89.6973 69.9123 89.2352 69.9043C88.7763 69.898 88.36 70.0069 87.9862 70.2314C87.6107 70.4587 87.3058 70.7775 87.0711 71.1872C86.8177 71.6302 86.6992 72.0832 86.7159 72.5462C86.7355 73.0109 86.8913 73.4344 87.1834 73.8168L86.2181 74.6073C85.9258 74.2327 85.7231 73.8206 85.6102 73.3714C85.4986 72.9268 85.4793 72.4684 85.5525 71.9961C85.6288 71.5254 85.7953 71.0655 86.0523 70.6165Z" fill="white" fill-opacity="0.9"/>
    <path d="M84.5465 78.1075L85.1211 77.4249L82.8659 75.5665L83.6724 74.6086L89.4252 79.3494L87.6543 81.4528C87.2869 81.8892 86.9067 82.1866 86.5137 82.3449C86.1211 82.5082 85.7357 82.5466 85.3574 82.4602C84.9797 82.3787 84.6173 82.195 84.2704 81.9092C83.9907 81.6786 83.7793 81.4076 83.6363 81.0959C83.491 80.7869 83.4262 80.4608 83.4417 80.1176C83.46 79.7766 83.5612 79.4455 83.7454 79.1239L80.1609 78.7795L81.1153 77.646L84.5465 78.1075ZM85.8351 78.0134L84.8607 79.1709C84.5963 79.4848 84.4823 79.7987 84.5186 80.1127C84.5551 80.4266 84.7238 80.7077 85.0251 80.9559C85.2161 81.1133 85.4168 81.2157 85.6274 81.2631C85.8408 81.3127 86.0508 81.2986 86.2573 81.221C86.4639 81.1434 86.6545 81.0008 86.8293 80.7932L87.8038 79.6358L85.8351 78.0134Z" fill="white" fill-opacity="0.9"/>
    <path d="M76.6541 81.8032C77.2071 81.3508 77.8041 81.0624 78.4451 80.9381C79.0882 80.8164 79.7217 80.8734 80.3455 81.1089C80.9689 81.3495 81.5269 81.7646 82.0198 82.3545C82.5128 82.9442 82.819 83.5633 82.9383 84.2116C83.055 84.862 82.9913 85.4869 82.7475 86.0864C82.5057 86.6885 82.1084 87.2157 81.5554 87.6681C81.0024 88.1204 80.4057 88.4064 79.7653 88.5258C79.1243 88.6502 78.4934 88.5935 77.8722 88.3556C77.2484 88.12 76.69 87.7073 76.1971 87.1174C75.7042 86.5277 75.3983 85.9062 75.2794 85.2531C75.16 84.6048 75.2212 83.9797 75.4628 83.3775C75.704 82.7803 76.1012 82.2555 76.6541 81.8032ZM77.3969 82.6919C77.03 82.992 76.7676 83.3437 76.6096 83.747C76.449 84.1525 76.4119 84.5783 76.4984 85.0242C76.5871 85.4729 76.8078 85.9081 77.1602 86.3297C77.5081 86.7461 77.8953 87.0382 78.3218 87.2061C78.7504 87.3767 79.1811 87.422 79.6139 87.342C80.044 87.2644 80.4425 87.0754 80.8094 86.7753C81.1763 86.4752 81.44 86.1223 81.6007 85.7168C81.7586 85.3135 81.7933 84.8875 81.7046 84.4389C81.618 83.993 81.4007 83.5619 81.0528 83.1455C80.7004 82.7238 80.3098 82.4277 79.8812 82.2571C79.4548 82.0892 79.0265 82.0441 78.5964 82.1219C78.1636 82.2018 77.7638 82.3918 77.3969 82.6919Z" fill="white" fill-opacity="0.9"/>
    <path d="M69.4426 88.0814L68.8782 87.1202L72.1061 85.2652L75.8667 91.6704L74.777 92.2966L71.5809 86.8525L69.4426 88.0814Z" fill="white" fill-opacity="0.9"/>
    <path d="M64.8074 90.1184L64.3621 89.0979L67.7892 87.6337L70.7571 94.4343L69.6003 94.9284L67.0778 89.1485L64.8074 90.1184Z" fill="white" fill-opacity="0.9"/>
    <path d="M61.9033 97.6601L59.3796 98.1265C58.6295 98.2651 57.9678 98.2305 57.3945 98.023C56.8178 97.816 56.3489 97.464 55.9881 96.967C55.6238 96.4707 55.3728 95.8583 55.2353 95.1299C55.0978 94.4014 55.108 93.7389 55.266 93.1426C55.4207 92.5468 55.7292 92.0495 56.1914 91.6504C56.6503 91.2521 57.2549 90.9836 58.005 90.845L60.5287 90.3787L61.9033 97.6601ZM58.2628 91.9282C57.5266 92.0643 57.016 92.3876 56.7314 92.8982C56.4441 93.4128 56.3771 94.0769 56.5308 94.8904C56.6837 95.7006 56.9878 96.2927 57.4429 96.6665C57.8952 97.0445 58.4896 97.1653 59.2258 97.0293L60.4594 96.8014L59.4964 91.7003L58.2628 91.9282Z" fill="white" fill-opacity="0.9"/>
    <path d="M49.2877 91.562C50.0051 91.5756 50.6478 91.742 51.2157 92.0612C51.7835 92.3837 52.2263 92.8355 52.5442 93.4166C52.8582 94.001 53.0079 94.6758 52.993 95.4409C52.978 96.2062 52.8022 96.873 52.4656 97.4416C52.1254 98.01 51.6653 98.4429 51.0854 98.74C50.5054 99.0407 49.8567 99.1841 49.1393 99.1704C48.4219 99.1568 47.7809 98.9886 47.2166 98.6662C46.6487 98.347 46.2076 97.897 45.8934 97.316C45.5757 96.735 45.4243 96.0619 45.4391 95.2967C45.454 94.5316 45.6317 93.863 45.9719 93.2911C46.3086 92.7225 46.767 92.288 47.347 91.9873C47.9234 91.69 48.5703 91.5483 49.2877 91.562ZM49.2652 92.7149C48.7893 92.7058 48.3586 92.8033 47.973 93.0071C47.5838 93.211 47.2752 93.5099 47.047 93.9039C46.8187 94.3013 46.6992 94.7735 46.6885 95.3206C46.6779 95.8607 46.779 96.332 46.9918 96.7343C47.2044 97.1402 47.5011 97.4524 47.882 97.6709C48.2593 97.8895 48.6859 98.0032 49.1619 98.0123C49.6378 98.0214 50.0703 97.924 50.4594 97.7202C50.845 97.5163 51.1519 97.2155 51.3802 96.8182C51.6085 96.4241 51.7278 95.9571 51.7384 95.417C51.7491 94.87 51.648 94.3935 51.4354 93.9876C51.2228 93.5853 50.9277 93.2749 50.5504 93.0564C50.1695 92.8379 49.7411 92.724 49.2652 92.7149Z" fill="white" fill-opacity="0.9"/>
    <path d="M42.5554 98.8685L41.2897 98.5444L41.2018 92.4748L38.0113 97.705L36.9643 97.4368L36.739 91.3321L33.6807 96.5961L32.4202 96.2733L36.2783 89.6098L37.7931 89.9977L38.0639 95.3683L40.9292 90.8008L42.4439 91.1885L42.5554 98.8685Z" fill="white" fill-opacity="0.9"/>
    <path d="M24.4536 92.3257L27.8991 85.7494L29.1483 86.39L29.5247 92.8844L32.1269 87.9176L33.2363 88.4865L29.7908 95.0628L28.5509 94.4269L28.1483 87.9601L25.5631 92.8947L24.4536 92.3257Z" fill="white" fill-opacity="0.9"/>
    <path d="M21.8829 85.5397L19.0079 83.1352L19.6621 82.3696L22.5371 84.774L21.8829 85.5397Z" fill="white" fill-opacity="0.9"/>
    <path d="M16.6999 75.6565C17.0233 76.0702 17.2517 76.493 17.3855 76.9246C17.5144 77.3556 17.5391 77.7723 17.4596 78.1745C17.3773 78.5788 17.1892 78.9438 16.895 79.2695L15.8683 78.4396C16.1627 78.1313 16.3053 77.7815 16.2959 77.3902C16.2819 76.9984 16.1302 76.6175 15.8412 76.2477C15.5993 75.9381 15.3288 75.7334 15.0298 75.6338C14.7281 75.5364 14.4331 75.5978 14.1452 75.8181C13.9402 75.9748 13.8241 76.1687 13.7967 76.3998C13.7665 76.6329 13.7903 76.873 13.8682 77.1198C13.9411 77.3661 14.0637 77.7013 14.2358 78.1254C14.4221 78.5958 14.555 78.9953 14.6348 79.3239C14.7117 79.6546 14.7093 79.9825 14.6272 80.308C14.5424 80.6354 14.3311 80.9283 13.9933 81.1867C13.636 81.46 13.2629 81.6052 12.8739 81.6227C12.48 81.6394 12.0992 81.5455 11.7313 81.341C11.3636 81.1364 11.032 80.845 10.7365 80.4669C10.4561 80.108 10.2476 79.7335 10.1109 79.3434C9.97421 78.9534 9.93347 78.5644 9.98866 78.1764C10.0417 77.7856 10.2107 77.4244 10.4957 77.0927L11.4784 77.8577C11.2229 78.1537 11.1062 78.4684 11.1279 78.802C11.1446 79.1349 11.2783 79.4617 11.5287 79.7822C11.7642 80.0836 12.0315 80.284 12.3306 80.3837C12.6274 80.4805 12.9171 80.421 13.1996 80.2049C13.3712 80.0736 13.4676 79.908 13.4884 79.7082C13.5093 79.5084 13.4855 79.2968 13.417 79.0734C13.3459 78.8521 13.2326 78.5514 13.0771 78.1713C12.8724 77.6713 12.7243 77.244 12.6329 76.8892C12.5416 76.5346 12.5381 76.1762 12.6223 75.814C12.7017 75.4514 12.9255 75.1291 13.2939 74.8474C13.6843 74.5488 14.0857 74.3972 14.498 74.3927C14.9103 74.3881 15.3051 74.4998 15.6823 74.7278C16.0546 74.9551 16.3938 75.2648 16.6999 75.6565Z" fill="white" fill-opacity="0.9"/>
    <path d="M12.5406 69.2678C12.8732 69.8968 13.0345 70.5344 13.0245 71.1805C13.0114 71.8282 12.8236 72.4295 12.4613 72.9844C12.0973 73.5362 11.5711 73.9902 10.8825 74.3466C10.197 74.7013 9.52144 74.8691 8.85571 74.8502C8.18836 74.8282 7.58363 74.637 7.04153 74.2766C6.49634 73.9178 6.05745 73.4239 5.72488 72.7948C5.48316 72.3377 5.33366 71.8718 5.27636 71.3972C5.21596 70.9244 5.25056 70.4668 5.38016 70.0246C5.50505 69.5808 5.72144 69.1757 6.02936 68.8092L6.96747 69.6311C6.6628 70.0037 6.49364 70.4234 6.45998 70.8903C6.42471 71.354 6.52551 71.8099 6.76236 72.258C6.98299 72.6753 7.27713 73.0037 7.64478 73.2434C8.01081 73.48 8.42481 73.6018 8.8868 73.6089C9.34568 73.6176 9.81705 73.4969 10.3009 73.2465C10.7878 72.9945 11.1601 72.6787 11.4177 72.2993C11.6721 71.9214 11.8056 71.5162 11.8179 71.0838C11.8287 70.6484 11.7237 70.222 11.5031 69.8047C11.2646 69.3536 10.9444 69.0092 10.5423 68.7718C10.1372 68.5359 9.69304 68.4355 9.20991 68.4706L9.0627 67.2396C9.53948 67.2 9.99922 67.2552 10.4419 67.4051C10.8799 67.5537 11.2796 67.7865 11.6407 68.1037C11.9989 68.4225 12.2989 68.8105 12.5406 69.2678Z" fill="white" fill-opacity="0.9"/>
    <path d="M7.00654 63.9808L7.27399 64.8287L10.0757 63.9636L10.4511 65.1537L3.304 67.3604L2.47973 64.7471C2.30873 64.205 2.26267 63.7277 2.34155 63.3152C2.41605 62.9004 2.59264 62.5593 2.87128 62.2919C3.14555 62.0221 3.49821 61.8208 3.92923 61.6877C4.27672 61.5804 4.62158 61.5519 4.9638 61.6022C5.30497 61.6493 5.61698 61.7725 5.89983 61.9717C6.17933 62.172 6.40558 62.4359 6.57855 62.7634L8.81659 59.9719L9.2608 61.3802L7.00654 63.9808ZM6.38687 65.1026L5.93329 63.6646C5.81026 63.2745 5.60562 63.0094 5.31941 62.8692C5.03319 62.7291 4.70297 62.7167 4.32874 62.8322C4.09151 62.9055 3.8956 63.0168 3.74103 63.1661C3.58311 63.3164 3.48104 63.4984 3.43481 63.7122C3.38858 63.9261 3.40613 64.1619 3.48746 64.4197L3.94104 65.8578L6.38687 65.1026Z" fill="white" fill-opacity="0.9"/>
    <path d="M8.17154 55.4942C8.25432 56.1994 8.17412 56.8518 7.9309 57.4515C7.68422 58.0516 7.29127 58.5465 6.75208 58.9361C6.209 59.3228 5.55327 59.5602 4.78488 59.6485C4.01649 59.7368 3.32495 59.6541 2.71024 59.4005C2.09512 59.1435 1.59973 58.7507 1.22405 58.2221C0.844914 57.694 0.613948 57.0773 0.531163 56.3721C0.448378 55.667 0.530531 55.0161 0.777624 54.4194C1.02084 53.8197 1.41224 53.3267 1.95184 52.9405C2.49104 52.5509 3.14483 52.3118 3.91322 52.2235C4.6816 52.1353 5.37509 52.2195 5.99368 52.4761C6.6084 52.7297 7.10532 53.1205 7.48447 53.6487C7.85973 54.1738 8.08875 54.789 8.17154 55.4942ZM7.01375 55.6272C6.95883 55.1594 6.80331 54.7502 6.54722 54.3996C6.2907 54.0456 5.94981 53.7832 5.52453 53.6124C5.09577 53.4421 4.60672 53.3885 4.05738 53.4516C3.51499 53.5139 3.0566 53.6764 2.6822 53.939C2.30433 54.2021 2.03156 54.535 1.86389 54.9378C1.69583 55.3371 1.63925 55.7706 1.69417 56.2385C1.74909 56.7063 1.90481 57.1172 2.16131 57.4713C2.41742 57.8218 2.75985 58.0823 3.1886 58.2527C3.61388 58.4234 4.09772 58.4777 4.64011 58.4153C5.18945 58.3522 5.65306 58.1892 6.03094 57.9261C6.40533 57.6634 6.67656 57.3325 6.84463 56.9331C7.0123 56.5303 7.06867 56.095 7.01375 55.6272Z" fill="white" fill-opacity="0.9"/>
    <path d="M6.7661 45.9809L7.88826 46.0366L7.70107 49.7252L0.223511 49.3538L0.286696 48.1087L6.6421 48.4244L6.7661 45.9809Z" fill="white" fill-opacity="0.9"/>
    <path d="M7.57023 40.9487L8.67773 41.1361L8.04858 44.7765L0.668701 43.5281L0.881071 42.2993L7.15345 43.3603L7.57023 40.9487Z" fill="white" fill-opacity="0.9"/>
    <path d="M2.70728 34.5334L3.68972 32.1867C3.98171 31.4891 4.37206 30.9595 4.86078 30.5974C5.35083 30.2323 5.9048 30.0357 6.52266 30.0079C7.14187 29.9767 7.79749 30.1029 8.48953 30.3865C9.18156 30.6701 9.73701 31.0401 10.1559 31.4966C10.576 31.9499 10.8289 32.4771 10.9145 33.0782C11.0014 33.676 10.8989 34.3236 10.6069 35.0212L9.62442 37.3679L2.70728 34.5334ZM9.54872 34.6437C9.83534 33.959 9.84011 33.3595 9.56304 32.8448C9.28406 32.3257 8.75812 31.9078 7.98524 31.5911C7.2156 31.2757 6.54824 31.2047 5.9832 31.3779C5.41625 31.5466 4.98946 31.9734 4.70283 32.6581L4.22266 33.805L9.06854 35.7907L9.54872 34.6437Z" fill="white" fill-opacity="0.9"/>
    <path d="M14.7289 27.3901C14.3261 27.9776 13.8347 28.4199 13.2547 28.7169C12.6717 29.0119 12.0475 29.1329 11.3819 29.0796C10.7155 29.0215 10.0621 28.7777 9.42194 28.3481C8.78175 27.9184 8.31259 27.4091 8.01445 26.8198C7.71827 26.2278 7.60238 25.6102 7.66679 24.9672C7.7283 24.3222 7.96044 23.706 8.36322 23.1184C8.766 22.531 9.25787 22.0911 9.83883 21.7988C10.4189 21.5018 11.0406 21.3814 11.7043 21.4376C12.3698 21.4909 13.0227 21.7322 13.6629 22.1619C14.3031 22.5915 14.7727 23.1033 15.0717 23.6973C15.3699 24.2865 15.4883 24.9036 15.4267 25.5485C15.3643 26.1887 15.1317 26.8026 14.7289 27.3901ZM13.7643 26.7428C14.0315 26.353 14.1837 25.9427 14.2213 25.5117C14.2606 25.0779 14.1757 24.6588 13.9663 24.2548C13.7541 23.8487 13.4191 23.4921 12.9615 23.185C12.5096 22.8818 12.0551 22.7086 11.5983 22.6656C11.1385 22.6208 10.7121 22.6966 10.3193 22.8933C9.92843 23.0871 9.5994 23.3789 9.33219 23.7687C9.06499 24.1584 8.91168 24.5702 8.87224 25.0041C8.83479 25.435 8.92219 25.8535 9.13444 26.2596C9.34378 26.6637 9.67441 27.0173 10.1263 27.3206C10.584 27.6278 11.0428 27.8037 11.5026 27.8487C11.9594 27.8917 12.3833 27.8163 12.7742 27.6225C13.1671 27.4258 13.4971 27.1326 13.7643 26.7428Z" fill="white" fill-opacity="0.9"/>
    <path d="M12.137 17.8748L13.1008 17.001L18.2946 20.2326L15.5975 14.7373L16.3949 14.0144L21.6932 17.1513L18.8955 11.7473L19.8555 10.8769L23.4041 17.7067L22.2506 18.7526L17.5499 16.0533L19.8622 20.9179L18.7088 21.9637L12.137 17.8748Z" fill="white" fill-opacity="0.9"/>
    <path d="M27.5117 6.37186L31.2244 12.8043L30.0024 13.4947L24.285 10.2824L27.089 15.1406L26.0039 15.7536L22.2913 9.32121L23.5041 8.63604L29.2123 11.8115L26.4266 6.98491L27.5117 6.37186Z" fill="white" fill-opacity="0.9"/>
    <path d="M34.5894 7.91375L38.1913 6.83115L38.4858 7.7904L34.8839 8.87301L34.5894 7.91375Z" fill="white" fill-opacity="0.9"/>
    <path d="M45.9137 8.94302C45.3869 8.98533 44.9043 8.94419 44.4655 8.8196C44.0302 8.69127 43.6637 8.48444 43.3664 8.1991C43.0688 7.9103 42.8623 7.55513 42.7469 7.13357L44.0101 6.73507C44.1107 7.14739 44.3292 7.45643 44.6657 7.6622C45.0052 7.86423 45.4106 7.94634 45.8816 7.90851C46.2758 7.87685 46.5966 7.76422 46.8441 7.57062C47.0913 7.37357 47.2003 7.09556 47.1708 6.73659C47.1498 6.48118 47.049 6.27907 46.8682 6.13029C46.6872 5.97807 46.4708 5.86689 46.2192 5.79676C45.9709 5.7229 45.6201 5.64163 45.1668 5.55295C44.6667 5.45067 44.2559 5.34295 43.934 5.22983C43.6119 5.11325 43.3354 4.9322 43.1046 4.68669C42.8734 4.43772 42.7406 4.10269 42.7061 3.68159C42.6695 3.23633 42.75 2.84769 42.9475 2.51566C43.1482 2.17989 43.4355 1.91535 43.8095 1.72202C44.1834 1.52869 44.6111 1.4127 45.0925 1.37403C45.5496 1.33733 45.9806 1.36872 46.3855 1.46822C46.7906 1.56772 47.1423 1.7462 47.4409 2.00365C47.743 2.26082 47.9567 2.59803 48.0823 3.01529L46.898 3.41267C46.7866 3.03943 46.5838 2.77084 46.2894 2.60686C45.9982 2.43916 45.6486 2.37169 45.2403 2.40447C44.8566 2.43529 44.5409 2.54751 44.2934 2.7411C44.0494 2.93441 43.9419 3.2071 43.9708 3.55918C43.9883 3.77318 44.076 3.94333 44.2339 4.06962C44.3918 4.19592 44.5839 4.29166 44.8106 4.35685C45.0368 4.41858 45.3534 4.48871 45.7602 4.56722C46.2953 4.67016 46.7381 4.78053 47.0884 4.89832C47.4388 5.0161 47.7443 5.20872 48.005 5.47615C48.269 5.73985 48.4197 6.10123 48.4574 6.5603C48.4974 7.04699 48.4067 7.4625 48.1856 7.80684C47.9646 8.15119 47.6546 8.41756 47.2557 8.60594C46.86 8.79059 46.4126 8.90295 45.9137 8.94302Z" fill="white" fill-opacity="0.9"/>
    <path d="M53.72 8.97145C53.0057 8.90312 52.378 8.68824 51.8366 8.3268C51.2955 7.96191 50.8892 7.47771 50.6177 6.8742C50.3496 6.27101 50.2529 5.58681 50.3277 4.8216C50.4022 4.05982 50.6294 3.40835 51.0093 2.86716C51.3927 2.3263 51.8851 1.92982 52.4865 1.67771C53.0881 1.42215 53.746 1.32854 54.4604 1.39687C54.9794 1.44653 55.4554 1.5773 55.8884 1.7892C56.3216 1.99765 56.69 2.27643 56.9935 2.62555C57.3008 2.97155 57.5253 3.37226 57.6672 3.82768L56.4588 4.15566C56.31 3.69958 56.0472 3.33001 55.6705 3.04694C55.2972 2.76422 54.8563 2.59852 54.3477 2.54986C53.8738 2.50453 53.435 2.56865 53.0312 2.74226C52.6309 2.91619 52.3014 3.19257 52.0429 3.57142C51.7846 3.94681 51.6293 4.40337 51.5767 4.94109C51.5238 5.48225 51.5876 5.96325 51.768 6.38409C51.9487 6.80148 52.2187 7.13348 52.5779 7.38007C52.9406 7.62699 53.3588 7.77312 53.8327 7.81845C54.3449 7.86745 54.8113 7.79031 55.2321 7.58703C55.6531 7.38029 55.9809 7.06721 56.2153 6.64778L57.3377 7.19876C57.1106 7.6154 56.8126 7.96612 56.4437 8.2509C56.0785 8.53257 55.663 8.73636 55.197 8.86226C54.7314 8.98472 54.2391 9.02111 53.72 8.97145Z" fill="white" fill-opacity="0.9"/>
    <path d="M61.0748 7.21874L60.2101 6.97991L59.4209 9.7767L58.2073 9.44151L60.2203 2.30695L62.8853 3.04298C63.4382 3.19568 63.8682 3.4169 64.1753 3.70665C64.4867 3.994 64.6801 4.32605 64.7556 4.70282C64.8352 5.07718 64.8144 5.4795 64.693 5.90978C64.5951 6.25666 64.4318 6.55852 64.2031 6.81534C63.9777 7.07308 63.7036 7.26524 63.3808 7.39182C63.059 7.51505 62.7121 7.55948 62.3403 7.52508L63.4918 10.901L62.0557 10.5044L61.0748 7.21874ZM60.46 6.09435L61.9264 6.49937C62.3243 6.60924 62.6604 6.58344 62.9349 6.42196C63.2094 6.26048 63.3994 5.99295 63.5048 5.61938C63.5717 5.38256 63.5837 5.15939 63.541 4.94987C63.4994 4.73701 63.4004 4.55328 63.2442 4.39867C63.0879 4.24406 62.8783 4.13044 62.6153 4.05782L61.1488 3.65279L60.46 6.09435Z" fill="white" fill-opacity="0.9"/>
    <path d="M67.854 12.88C67.2121 12.5627 66.7041 12.1392 66.3298 11.6096C65.9571 11.0769 65.7534 10.4808 65.7189 9.82102C65.6889 9.15974 65.8469 8.48679 66.1927 7.80218C66.5385 7.11758 66.9868 6.59014 67.5377 6.21986C68.0917 5.85114 68.6952 5.65585 69.3478 5.63401C70.0022 5.60908 70.6503 5.75527 71.2921 6.0726C71.934 6.38992 72.4398 6.81414 72.8092 7.34525C73.1835 7.87481 73.3865 8.46869 73.4179 9.12687C73.4525 9.78661 73.2969 10.4588 72.9511 11.1434C72.6054 11.828 72.1546 12.3562 71.599 12.7281C71.0482 13.0983 70.4455 13.296 69.7912 13.3209C69.1416 13.3443 68.4959 13.1972 67.854 12.88ZM68.3749 11.8484C68.8009 12.0589 69.2322 12.154 69.6688 12.1338C70.1087 12.1151 70.5172 11.9764 70.8944 11.7177C71.2731 11.4559 71.5861 11.0802 71.8333 10.5908C72.0774 10.1075 72.1908 9.63902 72.1734 9.18526C72.1576 8.72839 72.0253 8.32034 71.7763 7.96111C71.5304 7.60343 71.1946 7.31932 70.7688 7.1088C70.343 6.89828 69.9101 6.80236 69.4703 6.82106C69.0335 6.8413 68.6258 6.98233 68.2471 7.24415C67.8699 7.50287 67.5592 7.87386 67.3152 8.35712C67.068 8.84657 66.9523 9.31972 66.9681 9.77659C66.9854 10.2303 67.117 10.6361 67.3628 10.9937C67.6117 11.353 67.9491 11.6379 68.3749 11.8484Z" fill="white" fill-opacity="0.9"/>
    <path d="M76.6243 16.8872L75.9634 17.7862L72.9446 15.6136L77.3488 9.62341L78.3678 10.3568L74.6245 15.448L76.6243 16.8872Z" fill="white" fill-opacity="0.9"/>
    <path d="M80.3571 20.2216L79.595 21.0384L76.8521 18.5333L81.9303 13.0904L82.8562 13.936L78.54 18.562L80.3571 20.2216Z" fill="white" fill-opacity="0.9"/>
    <path d="M88.508 19.7537L89.9647 21.8454C90.3976 22.4671 90.6348 23.0793 90.6761 23.6818C90.7194 24.2873 90.585 24.8541 90.2728 25.3823C89.9626 25.9135 89.499 26.3893 88.8822 26.8097C88.2655 27.2302 87.6496 27.4902 87.0345 27.5898C86.4216 27.6922 85.8369 27.6156 85.2804 27.3599C84.726 27.107 84.2323 26.6698 83.7994 26.0481L82.3428 23.9564L88.508 19.7537ZM84.6949 25.3746C85.1199 25.9849 85.6259 26.3149 86.2131 26.3646C86.8053 26.4151 87.4457 26.2056 88.1345 25.7361C88.8205 25.2684 89.2436 24.753 89.4039 24.1896C89.5689 23.627 89.439 23.0406 89.0141 22.4304L88.302 21.4081L83.9829 24.3523L84.6949 25.3746Z" fill="white" fill-opacity="0.9"/>
    <path d="M87.9426 33.4234C87.6606 32.7705 87.5501 32.1225 87.6109 31.4792C87.675 30.8345 87.9095 30.2495 88.3146 29.7242C88.7242 29.2007 89.2846 28.7887 89.9959 28.4879C90.7072 28.1871 91.3939 28.0719 92.0562 28.1421C92.7197 28.2155 93.3076 28.4529 93.8196 28.8539C94.3349 29.2537 94.7335 29.78 95.0156 30.4328C95.2975 31.0855 95.4058 31.7328 95.3403 32.3743C95.2794 33.0177 95.0459 33.6003 94.6394 34.1223C94.2345 34.6477 93.6763 35.0606 92.965 35.3614C92.2537 35.6621 91.5647 35.7765 90.8978 35.7045C90.2357 35.6343 89.6468 35.3993 89.1316 34.9995C88.6209 34.6015 88.2246 34.0762 87.9426 33.4234ZM89.0144 32.9702C89.2015 33.4033 89.4681 33.7518 89.8145 34.016C90.1621 34.2832 90.5643 34.4388 91.0211 34.483C91.4811 34.5257 91.9654 34.4396 92.4739 34.2246C92.9761 34.0122 93.3689 33.7276 93.6523 33.3704C93.939 33.0119 94.1049 32.6161 94.1499 32.1828C94.1963 31.7527 94.126 31.3211 93.9389 30.888C93.7518 30.4549 93.4845 30.1048 93.1368 29.8374C92.7905 29.5734 92.3874 29.42 91.9274 29.3772C91.4706 29.3331 90.9911 29.4172 90.489 29.6295C89.9805 29.8446 89.5829 30.1313 89.2962 30.4898C89.0127 30.8469 88.8477 31.2405 88.8014 31.6706C88.7563 32.1039 88.8274 32.5371 89.0144 32.9702Z" fill="white" fill-opacity="0.9"/>
    <path d="M97.4918 36.6035L97.7071 37.8793L92.1381 40.4269L98.2651 41.1838L98.4433 42.2393L92.8977 44.9253L99.0021 45.549L99.2166 46.8197L91.4946 46.042L91.2368 44.5152L96.086 42.0865L90.7031 41.3539L90.4453 39.8272L97.4918 36.6035Z" fill="white" fill-opacity="0.9"/>
    </svg>
    